g SM_Arrow
v 0.4433564 0.03599999 0.05531668
v 0.2470592 0.03599999 0.05207345
v 0.4249407 0.03599999 0.05207345
v 0.1748681 0.03599999 0.1043995
v 0.4536591 0.03599999 0.06455261
v 0.4542805 0.03599999 0.07837515
v 0.4451259 0.03599999 0.09467994
v 0.03487408 0.03599999 0.595894
v 0.1369408 0.03599999 0.05207345
v 0.225989 0.03599999 0.04788231
v 0.2081265 0.03599999 0.03594698
v 0.1961911 0.03599999 0.01808449
v -0.1369408 0.03599999 0.05207345
v 0.192 0.03599999 -0.00298576
v -0.1748681 0.03599999 0.1043995
v 0.01713187 0.03599999 0.5861745
v -0.0171319 0.03599999 0.5861745
v -0.03487413 0.03599999 0.595894
v 0.01887371 0.03599999 0.6089555
v -0.01887375 0.03599999 0.6089555
v -2.246077E-08 0.03599999 0.6135423
v -0.4451259 0.03599999 0.09467994
v -0.4542806 0.03599999 0.07837515
v -0.4536592 0.03599999 0.06455261
v -0.4433564 0.03599999 0.05531668
v -0.4249408 0.03599999 0.05207345
v -0.2470592 0.03599999 0.05207345
v -0.225989 0.03599999 0.04788231
v -0.2081265 0.03599999 0.03594698
v -0.1961912 0.03599999 0.01808449
v -0.192 0.03599999 -0.002985763
v -0.192 0.03599999 -0.5168673
v 0.192 0.03599999 -0.5168673
v -0.1878089 0.03599999 -0.5379376
v 0.1878089 0.03599999 -0.5379376
v -0.1758736 0.03599999 -0.5558001
v 0.1758735 0.03599999 -0.5558001
v -0.1580111 0.03599999 -0.5677356
v 0.158011 0.03599999 -0.5677356
v -0.1369408 0.03599999 -0.5719266
v 0.1369408 0.03599999 -0.5719266
v -0.4433564 -0.03600001 0.05531668
v -0.2470592 -0.03600001 0.05207345
v -0.4249408 -0.03600001 0.05207345
v -0.1748681 -0.03600001 0.1043995
v -0.4536592 -0.03600001 0.06455261
v -0.4542806 -0.03600001 0.07837515
v -0.4451259 -0.03600001 0.09467994
v -0.03487412 -0.03600001 0.595894
v -0.1369408 -0.03600001 0.05207345
v -0.225989 -0.03600001 0.04788231
v -0.2081265 -0.03600001 0.03594698
v -0.1961912 -0.03600001 0.01808449
v 0.1369408 -0.03600001 0.05207345
v -0.192 -0.03600001 -0.00298576
v 0.1748681 -0.03600001 0.1043995
v -0.0171319 -0.03600001 0.5861745
v 0.01713187 -0.03600001 0.5861745
v 0.0348741 -0.03600001 0.595894
v -0.01887374 -0.03600001 0.6089555
v 0.01887372 -0.03600001 0.6089555
v -1.173194E-08 -0.03600001 0.6135423
v 0.4451259 -0.03600001 0.09467994
v 0.4542805 -0.03600001 0.07837515
v 0.4536591 -0.03600001 0.06455261
v 0.4433564 -0.03600001 0.05531668
v 0.4249407 -0.03600001 0.05207345
v 0.2470592 -0.03600001 0.05207345
v 0.225989 -0.03600001 0.04788231
v 0.2081265 -0.03600001 0.03594698
v 0.1961911 -0.03600001 0.01808449
v 0.192 -0.03600001 -0.002985763
v 0.192 -0.03600001 -0.5168673
v -0.192 -0.03600001 -0.5168673
v 0.1878089 -0.03600001 -0.5379376
v -0.1878089 -0.03600001 -0.5379376
v 0.1758735 -0.03600001 -0.5558001
v -0.1758736 -0.03600001 -0.5558001
v 0.158011 -0.03600001 -0.5677356
v -0.1580111 -0.03600001 -0.5677356
v 0.1369408 -0.03600001 -0.5719266
v -0.1369408 -0.03600001 -0.5719266
v 0.1878089 -0.03600001 -0.5379376
v 0.192 -0.03600001 -0.5168673
v 0.192 0.03599999 -0.5168673
v 0.192 -0.03600001 -0.002985763
v 0.1878089 0.03599999 -0.5379376
v 0.192 0.03599999 -0.00298576
v 0.1758735 -0.03600001 -0.5558001
v 0.1961911 0.03599999 0.01808449
v 0.1758735 0.03599999 -0.5558001
v 0.1961911 -0.03600001 0.01808449
v 0.158011 -0.03600001 -0.5677356
v 0.2081265 0.03599999 0.03594698
v 0.158011 0.03599999 -0.5677356
v 0.2081265 -0.03600001 0.03594698
v 0.225989 0.03599999 0.04788231
v 0.225989 -0.03600001 0.04788231
v 0.1369408 -0.03600001 -0.5719266
v 0.1369408 0.03599999 -0.5719266
v 0.2470592 0.03599999 0.05207345
v 0.2470592 -0.03600001 0.05207345
v -0.1369408 0.03599999 -0.5719266
v -0.1369408 -0.03600001 -0.5719266
v -0.1580111 -0.03600001 -0.5677356
v -0.1580111 0.03599999 -0.5677356
v -0.1758736 -0.03600001 -0.5558001
v -0.1758736 0.03599999 -0.5558001
v -0.1878089 -0.03600001 -0.5379376
v -0.1878089 0.03599999 -0.5379376
v 0.4249407 -0.03600001 0.05207345
v 0.4249407 0.03599999 0.05207345
v 0.4433564 0.03599999 0.05531668
v 0.4433564 -0.03600001 0.05531668
v 0.4536591 0.03599999 0.06455261
v 0.4536591 -0.03600001 0.06455261
v 0.4542805 0.03599999 0.07837515
v 0.4542805 -0.03600001 0.07837515
v -0.192 -0.03600001 -0.5168673
v -0.192 0.03599999 -0.5168673
v 0.4451259 0.03599999 0.09467994
v 0.4451259 -0.03600001 0.09467994
v -0.192 0.03599999 -0.002985763
v -0.192 -0.03600001 -0.00298576
v -0.1961912 -0.03600001 0.01808449
v -0.1961912 0.03599999 0.01808449
v -0.2081265 -0.03600001 0.03594698
v -0.2081265 0.03599999 0.03594698
v -0.225989 -0.03600001 0.04788231
v -0.225989 0.03599999 0.04788231
v 0.0348741 -0.03600001 0.595894
v 0.03487408 0.03599999 0.595894
v 0.01887371 0.03599999 0.6089555
v 0.01887372 -0.03600001 0.6089555
v -2.246077E-08 0.03599999 0.6135423
v -1.173194E-08 -0.03600001 0.6135423
v -0.01887375 0.03599999 0.6089555
v -0.01887374 -0.03600001 0.6089555
v -0.2470592 -0.03600001 0.05207345
v -0.2470592 0.03599999 0.05207345
v -0.03487413 0.03599999 0.595894
v -0.03487412 -0.03600001 0.595894
v -0.4249408 0.03599999 0.05207345
v -0.4249408 -0.03600001 0.05207345
v -0.4433564 -0.03600001 0.05531668
v -0.4433564 0.03599999 0.05531668
v -0.4536592 -0.03600001 0.06455261
v -0.4536592 0.03599999 0.06455261
v -0.4542806 -0.03600001 0.07837515
v -0.4542806 0.03599999 0.07837515
v -0.4451259 -0.03600001 0.09467994
v -0.4451259 0.03599999 0.09467994
vt 0.03372192 0.8857422
vt 0.03372192 0.8852539
vt 0.03372192 0.8852539
vt 0.03372192 0.8945313
vt 0.03372192 0.887207
vt 0.03372192 0.8896484
vt 0.03372192 0.8925781
vt 0.03372192 0.9819336
vt 0.03372192 0.8852539
vt 0.03372192 0.8842773
vt 0.03372192 0.8823242
vt 0.03372192 0.8789063
vt 0.03372192 0.8852539
vt 0.03372192 0.8754883
vt 0.03372192 0.8945313
vt 0.03372192 0.9799805
vt 0.03372192 0.9799805
vt 0.03372192 0.9819336
vt 0.03372192 0.984375
vt 0.03372192 0.984375
vt 0.03372192 0.9848633
vt 0.03372192 0.8925781
vt 0.03372192 0.8896484
vt 0.03372192 0.887207
vt 0.03372192 0.8857422
vt 0.03372192 0.8852539
vt 0.03372192 0.8852539
vt 0.03372192 0.8842773
vt 0.03372192 0.8823242
vt 0.03372192 0.8789063
vt 0.03372192 0.8754883
vt 0.03372192 0.7836914
vt 0.03372192 0.7836914
vt 0.03372192 0.7802734
vt 0.03372192 0.7802734
vt 0.03372192 0.7768555
vt 0.03372192 0.7768555
vt 0.03372192 0.7749023
vt 0.03372192 0.7749023
vt 0.03372192 0.7739258
vt 0.03372192 0.7739258
vt 0.03372192 0.8857422
vt 0.03372192 0.8852539
vt 0.03372192 0.8852539
vt 0.03372192 0.8945313
vt 0.03372192 0.887207
vt 0.03372192 0.8896484
vt 0.03372192 0.8925781
vt 0.03372192 0.9819336
vt 0.03372192 0.8852539
vt 0.03372192 0.8842773
vt 0.03372192 0.8823242
vt 0.03372192 0.8789063
vt 0.03372192 0.8852539
vt 0.03372192 0.8754883
vt 0.03372192 0.8945313
vt 0.03372192 0.9799805
vt 0.03372192 0.9799805
vt 0.03372192 0.9819336
vt 0.03372192 0.984375
vt 0.03372192 0.984375
vt 0.03372192 0.9848633
vt 0.03372192 0.8925781
vt 0.03372192 0.8896484
vt 0.03372192 0.887207
vt 0.03372192 0.8857422
vt 0.03372192 0.8852539
vt 0.03372192 0.8852539
vt 0.03372192 0.8842773
vt 0.03372192 0.8823242
vt 0.03372192 0.8789063
vt 0.03372192 0.8754883
vt 0.03372192 0.7836914
vt 0.03372192 0.7836914
vt 0.03372192 0.7802734
vt 0.03372192 0.7802734
vt 0.03372192 0.7768555
vt 0.03372192 0.7768555
vt 0.03372192 0.7749023
vt 0.03372192 0.7749023
vt 0.03372192 0.7739258
vt 0.03372192 0.7739258
vt 0.03372192 0.7802734
vt 0.03372192 0.7836914
vt 0.03372192 0.7836914
vt 0.03372192 0.8754883
vt 0.03372192 0.7802734
vt 0.03372192 0.8754883
vt 0.03372192 0.7768555
vt 0.03372192 0.8789063
vt 0.03372192 0.7768555
vt 0.03372192 0.8789063
vt 0.03372192 0.7749023
vt 0.03372192 0.8823242
vt 0.03372192 0.7749023
vt 0.03372192 0.8823242
vt 0.03372192 0.8842773
vt 0.03372192 0.8842773
vt 0.03372192 0.7739258
vt 0.03372192 0.7739258
vt 0.03372192 0.8852539
vt 0.03372192 0.8852539
vt 0.03372192 0.7739258
vt 0.03372192 0.7739258
vt 0.03372192 0.7749023
vt 0.03372192 0.7749023
vt 0.03372192 0.7768555
vt 0.03372192 0.7768555
vt 0.03372192 0.7802734
vt 0.03372192 0.7802734
vt 0.03372192 0.8852539
vt 0.03372192 0.8852539
vt 0.03372192 0.8857422
vt 0.03372192 0.8857422
vt 0.03372192 0.887207
vt 0.03372192 0.887207
vt 0.03372192 0.8896484
vt 0.03372192 0.8896484
vt 0.03372192 0.7836914
vt 0.03372192 0.7836914
vt 0.03372192 0.8925781
vt 0.03372192 0.8925781
vt 0.03372192 0.8754883
vt 0.03372192 0.8754883
vt 0.03372192 0.8789063
vt 0.03372192 0.8789063
vt 0.03372192 0.8823242
vt 0.03372192 0.8823242
vt 0.03372192 0.8842773
vt 0.03372192 0.8842773
vt 0.03372192 0.9819336
vt 0.03372192 0.9819336
vt 0.03372192 0.984375
vt 0.03372192 0.984375
vt 0.03372192 0.9848633
vt 0.03372192 0.9848633
vt 0.03372192 0.984375
vt 0.03372192 0.984375
vt 0.03372192 0.8852539
vt 0.03372192 0.8852539
vt 0.03372192 0.9819336
vt 0.03372192 0.9819336
vt 0.03372192 0.8852539
vt 0.03372192 0.8852539
vt 0.03372192 0.8857422
vt 0.03372192 0.8857422
vt 0.03372192 0.887207
vt 0.03372192 0.887207
vt 0.03372192 0.8896484
vt 0.03372192 0.8896484
vt 0.03372192 0.8925781
vt 0.03372192 0.8925781
vn 0 1 0
vn 0 1 0
vn 0 1 0
vn 0 1 0
vn 0 1 0
vn 0 1 0
vn 0 1 0
vn 0 1 0
vn 0 1 0
vn 0 1 0
vn 0 1 0
vn 0 1 0
vn 0 1 0
vn 0 1 0
vn 0 1 0
vn 0 1 0
vn 0 1 0
vn 0 1 0
vn 0 1 0
vn 0 1 0
vn 0 1 0
vn 0 1 0
vn 0 1 0
vn 0 1 0
vn 0 1 0
vn 0 1 0
vn 0 1 0
vn 0 1 0
vn 0 1 0
vn 0 1 0
vn 0 1 0
vn 0 1 0
vn 0 1 0
vn 0 1 0
vn 0 1 0
vn 0 1 0
vn 0 1 0
vn 0 1 0
vn 0 1 0
vn 0 1 0
vn 0 1 0
vn 0 -1 0
vn 0 -1 0
vn 0 -1 0
vn 0 -1 0
vn 0 -1 0
vn 0 -1 0
vn 0 -1 0
vn 0 -1 0
vn 0 -1 0
vn 0 -1 0
vn 0 -1 0
vn 0 -1 0
vn 0 -1 0
vn 0 -1 0
vn 0 -1 0
vn 0 -1 0
vn 0 -1 0
vn 0 -1 0
vn 0 -1 0
vn 0 -1 0
vn 0 -1 0
vn 0 -1 0
vn 0 -1 0
vn 0 -1 0
vn 0 -1 0
vn 0 -1 0
vn 0 -1 0
vn 0 -1 0
vn 0 -1 0
vn 0 -1 0
vn 0 -1 0
vn 0 -1 0
vn 0 -1 0
vn 0 -1 0
vn 0 -1 0
vn 0 -1 0
vn 0 -1 0
vn 0 -1 0
vn 0 -1 0
vn 0 -1 0
vn 0 -1 0
vn 0.9238281 0 -0.3825684
vn 0.9951172 0 -0.09802246
vn 0.9951172 0 -0.09802246
vn 0.9951172 0 -0.09802246
vn 0.9238281 0 -0.3825684
vn 0.9951172 0 -0.09802246
vn 0.7070313 0 -0.7070313
vn 0.9238281 0 -0.3825684
vn 0.7070313 0 -0.7070313
vn 0.9238281 0 -0.3825684
vn 0.3825684 0 -0.9238281
vn 0.7070313 0 -0.7070313
vn 0.3825684 0 -0.9238281
vn 0.7070313 0 -0.7070313
vn 0.3825684 0 -0.9238281
vn 0.3825684 0 -0.9238281
vn 0.09802246 0 -0.9951172
vn 0.09802246 0 -0.9951172
vn 0.09802246 0 -0.9951172
vn 0.09802246 0 -0.9951172
vn -0.09802246 0 -0.9951172
vn -0.09802246 0 -0.9951172
vn -0.3825684 0 -0.9238281
vn -0.3825684 0 -0.9238281
vn -0.7070313 0 -0.7070313
vn -0.7070313 0 -0.7070313
vn -0.9238281 0 -0.3825684
vn -0.9238281 0 -0.3825684
vn 0.08703613 0 -0.9960938
vn 0.08703613 0 -0.9960938
vn 0.4372559 0 -0.8994141
vn 0.4372559 0 -0.8994141
vn 0.9038086 0 -0.4282227
vn 0.9038086 0 -0.4282227
vn 0.9726563 0 0.2312012
vn 0.9726563 0 0.2312012
vn -0.9951172 0 -0.09802246
vn -0.9951172 0 -0.09802246
vn 0.8261719 0 0.5634766
vn 0.8261719 0 0.5634766
vn -0.9951172 0 -0.09802246
vn -0.9951172 0 -0.09802246
vn -0.9238281 0 -0.3825684
vn -0.9238281 0 -0.3825684
vn -0.7070313 0 -0.7070313
vn -0.7070313 0 -0.7070313
vn -0.3825684 0 -0.9238281
vn -0.3825684 0 -0.9238281
vn 0.706543 0 0.7075195
vn 0.706543 0 0.7075195
vn 0.4453125 0 0.8955078
vn 0.4453125 0 0.8955078
vn 0 0 1
vn 0 0 1
vn -0.4453125 0 0.8955078
vn -0.4453125 0 0.8955078
vn -0.09802246 0 -0.9951172
vn -0.09802246 0 -0.9951172
vn -0.706543 0 0.7075195
vn -0.706543 0 0.7075195
vn -0.08703613 0 -0.9960938
vn -0.08703613 0 -0.9960938
vn -0.4372559 0 -0.8994141
vn -0.4372559 0 -0.8994141
vn -0.9038086 0 -0.4282227
vn -0.9038086 0 -0.4282227
vn -0.9726563 0 0.2312012
vn -0.9726563 0 0.2312012
vn -0.8261719 0 0.5634766
vn -0.8261719 0 0.5634766
g SM_Arrow_0
f 3/3/3 2/2/2 1/1/1
f 4/4/4 1/1/1 2/2/2
f 5/5/5 1/1/1 4/4/4
f 6/6/6 5/5/5 4/4/4
f 7/7/7 6/6/6 4/4/4
f 8/8/8 7/7/7 4/4/4
f 4/4/4 2/2/2 9/9/9
f 2/2/2 10/10/10 9/9/9
f 10/10/10 11/11/11 9/9/9
f 11/11/11 12/12/12 9/9/9
f 9/9/9 13/13/13 4/4/4
f 9/9/9 14/14/14 13/13/13
f 14/14/14 9/9/9 12/12/12
f 15/15/15 4/4/4 13/13/13
f 16/16/16 4/4/4 15/15/15
f 16/16/16 8/8/8 4/4/4
f 17/17/17 16/16/16 15/15/15
f 16/16/16 17/17/17 8/8/8
f 17/17/17 15/15/15 18/18/18
f 18/18/18 8/8/8 17/17/17
f 19/19/19 8/8/8 18/18/18
f 20/20/20 19/19/19 18/18/18
f 21/21/21 19/19/19 20/20/20
f 18/18/18 15/15/15 22/22/22
f 22/22/22 15/15/15 23/23/23
f 23/23/23 15/15/15 24/24/24
f 24/24/24 15/15/15 25/25/25
f 25/25/25 15/15/15 26/26/26
f 27/27/27 26/26/26 15/15/15
f 15/15/15 13/13/13 27/27/27
f 27/27/27 13/13/13 28/28/28
f 28/28/28 13/13/13 29/29/29
f 29/29/29 13/13/13 30/30/30
f 31/31/31 30/30/30 13/13/13
f 13/13/13 14/14/14 31/31/31
f 31/31/31 14/14/14 32/32/32
f 14/14/14 33/33/33 32/32/32
f 32/32/32 33/33/33 34/34/34
f 33/33/33 35/35/35 34/34/34
f 34/34/34 35/35/35 36/36/36
f 35/35/35 37/37/37 36/36/36
f 36/36/36 37/37/37 38/38/38
f 37/37/37 39/39/39 38/38/38
f 38/38/38 39/39/39 40/40/40
f 41/41/41 40/40/40 39/39/39
f 44/44/44 43/43/43 42/42/42
f 45/45/45 42/42/42 43/43/43
f 46/46/46 42/42/42 45/45/45
f 47/47/47 46/46/46 45/45/45
f 48/48/48 47/47/47 45/45/45
f 49/49/49 48/48/48 45/45/45
f 45/45/45 43/43/43 50/50/50
f 43/43/43 51/51/51 50/50/50
f 51/51/51 52/52/52 50/50/50
f 52/52/52 53/53/53 50/50/50
f 50/50/50 54/54/54 45/45/45
f 50/50/50 55/55/55 54/54/54
f 55/55/55 50/50/50 53/53/53
f 56/56/56 45/45/45 54/54/54
f 57/57/57 45/45/45 56/56/56
f 57/57/57 49/49/49 45/45/45
f 58/58/58 57/57/57 56/56/56
f 57/57/57 58/58/58 49/49/49
f 58/58/58 56/56/56 59/59/59
f 59/59/59 49/49/49 58/58/58
f 60/60/60 49/49/49 59/59/59
f 61/61/61 60/60/60 59/59/59
f 62/62/62 60/60/60 61/61/61
f 59/59/59 56/56/56 63/63/63
f 63/63/63 56/56/56 64/64/64
f 64/64/64 56/56/56 65/65/65
f 65/65/65 56/56/56 66/66/66
f 66/66/66 56/56/56 67/67/67
f 68/68/68 67/67/67 56/56/56
f 56/56/56 54/54/54 68/68/68
f 68/68/68 54/54/54 69/69/69
f 69/69/69 54/54/54 70/70/70
f 70/70/70 54/54/54 71/71/71
f 72/72/72 71/71/71 54/54/54
f 54/54/54 55/55/55 72/72/72
f 72/72/72 55/55/55 73/73/73
f 55/55/55 74/74/74 73/73/73
f 73/73/73 74/74/74 75/75/75
f 74/74/74 76/76/76 75/75/75
f 75/75/75 76/76/76 77/77/77
f 76/76/76 78/78/78 77/77/77
f 77/77/77 78/78/78 79/79/79
f 78/78/78 80/80/80 79/79/79
f 79/79/79 80/80/80 81/81/81
f 82/82/82 81/81/81 80/80/80
f 85/85/85 84/84/84 83/83/83
f 84/84/84 85/85/85 86/86/86
f 87/87/87 85/85/85 83/83/83
f 85/85/85 88/88/88 86/86/86
f 87/87/87 83/83/83 89/89/89
f 88/88/88 90/90/90 86/86/86
f 91/91/91 87/87/87 89/89/89
f 90/90/90 92/92/92 86/86/86
f 91/91/91 89/89/89 93/93/93
f 90/90/90 94/94/94 92/92/92
f 95/95/95 91/91/91 93/93/93
f 94/94/94 96/96/96 92/92/92
f 94/94/94 97/97/97 96/96/96
f 97/97/97 98/98/98 96/96/96
f 95/95/95 93/93/93 99/99/99
f 100/100/100 95/95/95 99/99/99
f 97/97/97 101/101/101 98/98/98
f 101/101/101 102/102/102 98/98/98
f 103/103/103 100/100/100 99/99/99
f 104/104/104 103/103/103 99/99/99
f 104/104/104 105/105/105 103/103/103
f 105/105/105 106/106/106 103/103/103
f 105/105/105 107/107/107 106/106/106
f 107/107/107 108/108/108 106/106/106
f 107/107/107 109/109/109 108/108/108
f 109/109/109 110/110/110 108/108/108
f 102/102/102 101/101/101 111/111/111
f 101/101/101 112/112/112 111/111/111
f 111/111/111 112/112/112 113/113/113
f 114/114/114 111/111/111 113/113/113
f 114/114/114 113/113/113 115/115/115
f 116/116/116 114/114/114 115/115/115
f 116/116/116 115/115/115 117/117/117
f 118/118/118 116/116/116 117/117/117
f 109/109/109 119/119/119 110/110/110
f 119/119/119 120/120/120 110/110/110
f 118/118/118 117/117/117 121/121/121
f 122/122/122 118/118/118 121/121/121
f 123/123/123 120/120/120 119/119/119
f 124/124/124 123/123/123 119/119/119
f 123/123/123 124/124/124 125/125/125
f 126/126/126 123/123/123 125/125/125
f 126/126/126 125/125/125 127/127/127
f 128/128/128 126/126/126 127/127/127
f 128/128/128 127/127/127 129/129/129
f 130/130/130 128/128/128 129/129/129
f 122/122/122 121/121/121 131/131/131
f 121/121/121 132/132/132 131/131/131
f 131/131/131 132/132/132 133/133/133
f 134/134/134 131/131/131 133/133/133
f 134/134/134 133/133/133 135/135/135
f 136/136/136 134/134/134 135/135/135
f 136/136/136 135/135/135 137/137/137
f 138/138/138 136/136/136 137/137/137
f 130/130/130 129/129/129 139/139/139
f 140/140/140 130/130/130 139/139/139
f 138/138/138 137/137/137 141/141/141
f 142/142/142 138/138/138 141/141/141
f 143/143/143 140/140/140 139/139/139
f 144/144/144 143/143/143 139/139/139
f 143/143/143 144/144/144 145/145/145
f 146/146/146 143/143/143 145/145/145
f 146/146/146 145/145/145 147/147/147
f 148/148/148 146/146/146 147/147/147
f 148/148/148 147/147/147 149/149/149
f 150/150/150 148/148/148 149/149/149
f 142/142/142 141/141/141 151/151/151
f 150/150/150 149/149/149 151/151/151
f 141/141/141 152/152/152 151/151/151
f 152/152/152 150/150/150 151/151/151
