g SM_Gem
v 0.214859 0.08142957 0.1240485
v 0.1379273 0.1628592 0.07963204
v 0.1379273 0.1628592 -0.07963204
v 0.214859 0.08142957 -0.1240485
v 5.915096E-07 0.08142957 -0.2480971
v 5.915096E-07 0.1628592 -0.1592641
v -0.1379261 0.1628592 -0.07963204
v -0.2148578 0.08142957 -0.1240485
v 0.214859 0.08142957 -0.1240485
v 0.1379273 0.1628592 -0.07963204
v 5.915096E-07 0.1628592 -0.1592641
v 5.915096E-07 0.08142957 -0.2480971
v 0.1379273 0.1628592 -0.07963204
v -0.1379261 0.1628592 -0.07963204
v 5.915096E-07 0.1628592 -0.1592641
v 0.1379273 0.1628592 0.07963204
v -0.1379261 0.1628592 0.07963204
v 5.915096E-07 0.1628592 0.1592641
v -0.2148578 0.08142957 -0.1240485
v 0.214859 0.08142957 -0.1240485
v 5.915096E-07 0.08142957 -0.2480971
v -0.2148578 0.08142957 0.1240485
v 0.214859 0.08142957 0.1240485
v 5.915096E-07 0.08142957 0.2480971
v -0.2148578 0.08142957 -0.1240485
v -0.1379261 0.1628592 -0.07963204
v -0.1379261 0.1628592 0.07963204
v -0.2148578 0.08142957 0.1240485
v -0.2148578 0.08142957 0.1240485
v -0.1379261 0.1628592 0.07963204
v 5.915096E-07 0.1628592 0.1592641
v 5.915096E-07 0.08142957 0.2480971
v 5.915096E-07 0.08142957 0.2480971
v 5.915096E-07 0.1628592 0.1592641
v 0.1379273 0.1628592 0.07963204
v 0.214859 0.08142957 0.1240485
v 0.214859 0.08142957 0.1240485
v 0.214859 0.08142957 -0.1240485
v 0.1379273 -6.836878E-09 -0.07963204
v 0.1379273 -6.836878E-09 0.07963204
v 5.915096E-07 0.08142957 -0.2480971
v -0.2148578 0.08142957 -0.1240485
v -0.1379261 -6.836878E-09 -0.07963204
v 5.915096E-07 -6.836878E-09 -0.1592641
v 0.214859 0.08142957 -0.1240485
v 5.915096E-07 0.08142957 -0.2480971
v 5.915096E-07 -6.836878E-09 -0.1592641
v 0.1379273 -6.836878E-09 -0.07963204
v -0.1379261 -6.836878E-09 -0.07963204
v 0.1379273 -6.836878E-09 -0.07963204
v 5.915096E-07 -6.836878E-09 -0.1592641
v -0.1379261 -6.836878E-09 0.07963204
v 0.1379273 -6.836878E-09 0.07963204
v 5.915096E-07 -6.836878E-09 0.1592641
v -0.2148578 0.08142957 -0.1240485
v -0.2148578 0.08142957 0.1240485
v -0.1379261 -6.836878E-09 0.07963204
v -0.1379261 -6.836878E-09 -0.07963204
v -0.2148578 0.08142957 0.1240485
v 5.915096E-07 0.08142957 0.2480971
v 5.915096E-07 -6.836878E-09 0.1592641
v -0.1379261 -6.836878E-09 0.07963204
v 5.915096E-07 0.08142957 0.2480971
v 0.214859 0.08142957 0.1240485
v 0.1379273 -6.836878E-09 0.07963204
v 5.915096E-07 -6.836878E-09 0.1592641
vt 0.6108398 0.05023193
vt 0.6108398 0.1931152
vt 0.6108398 0.1931152
vt 0.6108398 0.05023193
vt 0.6108398 0.05023193
vt 0.6108398 0.1931152
vt 0.6108398 0.1931152
vt 0.6108398 0.05023193
vt 0.6108398 0.05023193
vt 0.6108398 0.1931152
vt 0.6108398 0.1931152
vt 0.6108398 0.05023193
vt 0.5791016 0.1959229
vt 0.5791016 0.1959229
vt 0.5791016 0.1959229
vt 0.5791016 0.1959229
vt 0.5791016 0.1959229
vt 0.5791016 0.1959229
vt 0.5791016 0.1959229
vt 0.5791016 0.1959229
vt 0.5791016 0.1959229
vt 0.5791016 0.1959229
vt 0.5791016 0.1959229
vt 0.5791016 0.1959229
vt 0.6108398 0.05023193
vt 0.6108398 0.1931152
vt 0.6108398 0.1931152
vt 0.6108398 0.05023193
vt 0.6108398 0.05023193
vt 0.6108398 0.1931152
vt 0.6108398 0.1931152
vt 0.6108398 0.05023193
vt 0.6108398 0.05023193
vt 0.6108398 0.1931152
vt 0.6108398 0.1931152
vt 0.6108398 0.05023193
vt 0.6108398 0.05435181
vt 0.6108398 0.05435181
vt 0.6108398 0.1972656
vt 0.6108398 0.1972656
vt 0.6108398 0.05435181
vt 0.6108398 0.05435181
vt 0.6108398 0.1972656
vt 0.6108398 0.1972656
vt 0.6108398 0.05435181
vt 0.6108398 0.05435181
vt 0.6108398 0.1972656
vt 0.6108398 0.1972656
vt 0.5791016 0.1959229
vt 0.5791016 0.1959229
vt 0.5791016 0.1959229
vt 0.5791016 0.1959229
vt 0.5791016 0.1959229
vt 0.5791016 0.1959229
vt 0.6108398 0.05435181
vt 0.6108398 0.05435181
vt 0.6108398 0.1972656
vt 0.6108398 0.1972656
vt 0.6108398 0.05435181
vt 0.6108398 0.05435181
vt 0.6108398 0.1972656
vt 0.6108398 0.1972656
vt 0.6108398 0.05435181
vt 0.6108398 0.05435181
vt 0.6108398 0.1972656
vt 0.6108398 0.1972656
vn 0.7270508 0.6865234 0
vn 0.7270508 0.6865234 0
vn 0.7270508 0.6865234 0
vn 0.7270508 0.6865234 0
vn -0.3635254 0.6865234 -0.6293945
vn -0.3635254 0.6865234 -0.6293945
vn -0.3635254 0.6865234 -0.6293945
vn -0.3635254 0.6865234 -0.6293945
vn 0.3635254 0.6865234 -0.6293945
vn 0.3635254 0.6865234 -0.6293945
vn 0.3635254 0.6865234 -0.6293945
vn 0.3635254 0.6865234 -0.6293945
vn 0 1 0
vn 0 1 0
vn 0 1 0
vn 0 1 0
vn 0 1 0
vn 0 1 0
vn 0 -1 0
vn 0 -1 0
vn 0 -1 0
vn 0 -1 0
vn 0 -1 0
vn 0 -1 0
vn -0.7270508 0.6865234 0
vn -0.7270508 0.6865234 0
vn -0.7270508 0.6865234 0
vn -0.7270508 0.6865234 0
vn -0.3635254 0.6865234 0.6293945
vn -0.3635254 0.6865234 0.6293945
vn -0.3635254 0.6865234 0.6293945
vn -0.3635254 0.6865234 0.6293945
vn 0.3635254 0.6865234 0.6293945
vn 0.3635254 0.6865234 0.6293945
vn 0.3635254 0.6865234 0.6293945
vn 0.3635254 0.6865234 0.6293945
vn 0.7270508 -0.6865234 0
vn 0.7270508 -0.6865234 0
vn 0.7270508 -0.6865234 0
vn 0.7270508 -0.6865234 0
vn -0.3635254 -0.6865234 -0.6293945
vn -0.3635254 -0.6865234 -0.6293945
vn -0.3635254 -0.6865234 -0.6293945
vn -0.3635254 -0.6865234 -0.6293945
vn 0.3635254 -0.6865234 -0.6293945
vn 0.3635254 -0.6865234 -0.6293945
vn 0.3635254 -0.6865234 -0.6293945
vn 0.3635254 -0.6865234 -0.6293945
vn 0 -1 0
vn 0 -1 0
vn 0 -1 0
vn 0 -1 0
vn 0 -1 0
vn 0 -1 0
vn -0.7270508 -0.6865234 0
vn -0.7270508 -0.6865234 0
vn -0.7270508 -0.6865234 0
vn -0.7270508 -0.6865234 0
vn -0.3635254 -0.6865234 0.6293945
vn -0.3635254 -0.6865234 0.6293945
vn -0.3635254 -0.6865234 0.6293945
vn -0.3635254 -0.6865234 0.6293945
vn 0.3635254 -0.6865234 0.6293945
vn 0.3635254 -0.6865234 0.6293945
vn 0.3635254 -0.6865234 0.6293945
vn 0.3635254 -0.6865234 0.6293945
g SM_Gem_0
f 3/3/3 2/2/2 1/1/1
f 4/4/4 3/3/3 1/1/1
f 7/7/7 6/6/6 5/5/5
f 8/8/8 7/7/7 5/5/5
f 11/11/11 10/10/10 9/9/9
f 12/12/12 11/11/11 9/9/9
f 15/15/15 14/14/14 13/13/13
f 16/16/16 13/13/13 14/14/14
f 17/17/17 16/16/16 14/14/14
f 18/18/18 16/16/16 17/17/17
f 21/21/21 20/20/20 19/19/19
f 22/22/22 19/19/19 20/20/20
f 23/23/23 22/22/22 20/20/20
f 24/24/24 22/22/22 23/23/23
f 27/27/27 26/26/26 25/25/25
f 28/28/28 27/27/27 25/25/25
f 31/31/31 30/30/30 29/29/29
f 32/32/32 31/31/31 29/29/29
f 35/35/35 34/34/34 33/33/33
f 36/36/36 35/35/35 33/33/33
f 39/39/39 38/38/38 37/37/37
f 40/40/40 39/39/39 37/37/37
f 43/43/43 42/42/42 41/41/41
f 44/44/44 43/43/43 41/41/41
f 47/47/47 46/46/46 45/45/45
f 48/48/48 47/47/47 45/45/45
f 51/51/51 50/50/50 49/49/49
f 52/52/52 49/49/49 50/50/50
f 53/53/53 52/52/52 50/50/50
f 54/54/54 52/52/52 53/53/53
f 57/57/57 56/56/56 55/55/55
f 58/58/58 57/57/57 55/55/55
f 61/61/61 60/60/60 59/59/59
f 62/62/62 61/61/61 59/59/59
f 65/65/65 64/64/64 63/63/63
f 66/66/66 65/65/65 63/63/63
