g SM_Money_Stack
v -0.132488 8.168538E-09 0.2569025
v -0.132488 8.168538E-09 -0.2569025
v -0.132488 0.162523 -0.2569025
v -0.132488 0.162523 0.2569025
v -0.132488 8.168538E-09 -0.2569025
v 0.132488 8.168538E-09 -0.2569025
v 0.132488 0.162523 -0.2569025
v -0.132488 0.162523 -0.2569025
v 0.132488 8.168538E-09 -0.2569025
v 0.132488 8.168538E-09 0.2569025
v 0.132488 0.162523 0.2569025
v 0.132488 0.162523 -0.2569025
v 0.132488 8.168538E-09 0.2569025
v -0.132488 8.168538E-09 0.2569025
v -0.132488 0.162523 0.2569025
v 0.132488 0.162523 0.2569025
v -0.132488 8.168538E-09 -0.2569025
v -0.132488 8.168538E-09 0.2569025
v 0.132488 8.168538E-09 0.2569025
v 0.132488 8.168538E-09 -0.2569025
v 0.132488 0.162523 -0.2569025
v 0.132488 0.162523 0.2569025
v -0.132488 0.162523 0.2569025
v -0.132488 0.162523 -0.2569025
vt 0.005191803 0.05722046
vt 0.9985352 0.05722046
vt 0.9985352 0.3996582
vt 0.005191803 0.3996582
vt 0.005519867 0.05697632
vt 0.4516602 0.05697632
vt 0.4516602 0.4020996
vt 0.005519867 0.4020996
vt 0.9985352 0.05722046
vt 0.005191803 0.05722046
vt 0.005191803 0.3996582
vt 0.9985352 0.3996582
vt 0.4516602 0.05697632
vt 0.005519867 0.05697632
vt 0.005519867 0.4020996
vt 0.4516602 0.4020996
vt 1.000977 0.9980469
vt 0.004074097 0.9980469
vt 0.004074097 0.4926758
vt 1.000977 0.4926758
vt 1.000977 0.4926758
vt 0.004074097 0.4926758
vt 0.004074097 0.9980469
vt 1.000977 0.9980469
vn -1 0 0
vn -1 0 0
vn -1 0 0
vn -1 0 0
vn 0 0 -1
vn 0 0 -1
vn 0 0 -1
vn 0 0 -1
vn 1 0 0
vn 1 0 0
vn 1 0 0
vn 1 0 0
vn 0 0 1
vn 0 0 1
vn 0 0 1
vn 0 0 1
vn 0 -1 0
vn 0 -1 0
vn 0 -1 0
vn 0 -1 0
vn 0 1 0
vn 0 1 0
vn 0 1 0
vn 0 1 0
g SM_Money_Stack_0
f 3/3/3 2/2/2 1/1/1
f 4/4/4 3/3/3 1/1/1
f 7/7/7 6/6/6 5/5/5
f 8/8/8 7/7/7 5/5/5
f 11/11/11 10/10/10 9/9/9
f 12/12/12 11/11/11 9/9/9
f 15/15/15 14/14/14 13/13/13
f 16/16/16 15/15/15 13/13/13
f 19/19/19 18/18/18 17/17/17
f 20/20/20 19/19/19 17/17/17
f 23/23/23 22/22/22 21/21/21
f 24/24/24 23/23/23 21/21/21
